HIERARCHY
ROOT Hips
{
	OFFSET	0.00	0.00	0.00
	CHANNELS 6 Xposition Yposition Zposition Zrotation Xrotation Yrotation
	JOINT LeftUpLeg
	{
		OFFSET	 0.126116	-0.014019	-0.065224
		CHANNELS 3 Zrotation Xrotation Yrotation
		JOINT LeftLeg
		{
			OFFSET	 0.000000	 0.000000	 0.569914
			CHANNELS 3 Zrotation Xrotation Yrotation
			JOINT LeftFoot
			{
				OFFSET	 0.000000	 0.000000	 0.544423
				CHANNELS 3 Zrotation Xrotation Yrotation
				JOINT LeftToeBase
				{
					OFFSET	 0.000000	 0.000000	 0.207117
					CHANNELS 3 Zrotation Xrotation Yrotation
					End Site
					{
						OFFSET	 0.000000	 0.000000	 0.207117
					}
				}
			}
		}
	}
	JOINT RightUpLeg
	{
		OFFSET	-0.124023	-0.008373	-0.065224
		CHANNELS 3 Zrotation Xrotation Yrotation
		JOINT RightLeg
		{
			OFFSET	 0.000000	 0.000000	 0.570047
			CHANNELS 3 Zrotation Xrotation Yrotation
			JOINT RightFoot
			{
				OFFSET	 0.000000	 0.000000	 0.544354
				CHANNELS 3 Zrotation Xrotation Yrotation
				JOINT RightToeBase
				{
					OFFSET	 0.000000	 0.000000	 0.207540
					CHANNELS 3 Zrotation Xrotation Yrotation
					End Site
					{
						OFFSET	 0.000000	 0.000000	 0.207540
					}
				}
			}
		}
	}
	JOINT Spine
	{
		OFFSET	 0.000184	-0.007763	 0.117403
		CHANNELS 3 Zrotation Xrotation Yrotation
		JOINT Spine1
		{
			OFFSET	 0.000000	 0.000000	 0.137269
			CHANNELS 3 Zrotation Xrotation Yrotation
			JOINT Spine2
			{
				OFFSET	 0.000000	 0.000000	 0.156879
				CHANNELS 3 Zrotation Xrotation Yrotation
				JOINT LeftShoulder
				{
					OFFSET	 0.080501	-0.002496	 0.160144
					CHANNELS 3 Zrotation Xrotation Yrotation
					JOINT LeftArm
					{
						OFFSET	 0.000000	 0.000000	 0.164363
						CHANNELS 3 Zrotation Xrotation Yrotation
						JOINT LeftForeArm
						{
							OFFSET	 0.000000	 0.000000	 0.364576
							CHANNELS 3 Zrotation Xrotation Yrotation
							JOINT LeftHand
							{
								OFFSET	 0.000000	 0.000000	 0.360812
								CHANNELS 3 Zrotation Xrotation Yrotation
								JOINT LeftHandIndex1
								{
									OFFSET	 0.000000	 0.000000	 0.086006
									CHANNELS 3 Zrotation Xrotation Yrotation
									JOINT LeftHandIndex2
									{
										OFFSET	 0.000000	 0.000000	 0.047236
										CHANNELS 3 Zrotation Xrotation Yrotation
										JOINT LeftHandIndex3
										{
											OFFSET	-0.004284	-0.000551	 0.038166
											CHANNELS 3 Zrotation Xrotation Yrotation
											End Site
											{
												OFFSET	-0.004284	-0.000551	 0.038166
											}
										}
									}
								}
							}
						}
					}
				}
				JOINT Neck
				{
					OFFSET	 0.000000	 0.000000	 0.176489
					CHANNELS 3 Zrotation Xrotation Yrotation
					JOINT Head
					{
						OFFSET	 0.000000	-0.001747	 0.077940
						CHANNELS 3 Zrotation Xrotation Yrotation
						End Site
						{
							OFFSET	 0.000000	-0.001747	 0.077940
						}
					}
				}
				JOINT RightShoulder
				{
					OFFSET	-0.080363	 0.000306	 0.159706
					CHANNELS 3 Zrotation Xrotation Yrotation
					JOINT RightArm
					{
						OFFSET	 0.000000	 0.000000	 0.164196
						CHANNELS 3 Zrotation Xrotation Yrotation
						JOINT RightForeArm
						{
							OFFSET	 0.000000	 0.000000	 0.365611
							CHANNELS 3 Zrotation Xrotation Yrotation
							JOINT RightHand
							{
								OFFSET	 0.000000	 0.000000	 0.360648
								CHANNELS 3 Zrotation Xrotation Yrotation
								JOINT RightHandIndex1
								{
									OFFSET	 0.000000	 0.000000	 0.069977
									CHANNELS 3 Zrotation Xrotation Yrotation
									JOINT RightHandIndex2
									{
										OFFSET	 0.000000	 0.000000	 0.052305
										CHANNELS 3 Zrotation Xrotation Yrotation
										JOINT RightHandIndex3
										{
											OFFSET	 0.009002	-0.000782	 0.042196
											CHANNELS 3 Zrotation Xrotation Yrotation
											End Site
											{
												OFFSET	 0.009002	-0.000782	 0.042196
											}
										}
									}
								}
							}
						}
					}
				}
			}
		}
	}
}
MOTION
Frames:    6
Frame Time: 0.03333334
 0.011798	 0.039109	 1.217418	 179.536200	 0.440522	 0.554701	 2.275792	-9.907000	 177.993700	-1.431289	-40.183110	-6.802299	-151.020000	 83.211200	 137.704800	-2.228991	 45.102180	-0.421986	-11.986240	-9.917649	-175.174600	 6.464105	-39.295010	 9.337542	 166.712100	 84.573930	-158.272900	 2.350889	 34.137530	 0.129906	-27.789940	 5.456116	 1.266829	-0.902026	 11.727820	-2.637516	 6.950270	-25.450610	 5.247702	-91.229340	 83.958370	 178.242600	 27.624200	 60.618590	-43.575070	-2.522542	 1.315868	-6.720955	 20.317250	-7.539287	-8.560037	-11.302280	 8.949556	-24.070350	-5.213937	-0.202400	 3.566957	-1.378229	 35.397820	-2.634230	-1.260676	 7.191718	 5.157217	-2.564995	-19.802090	-6.933003	 87.726720	 87.419040	-176.798700	-64.051210	 59.487810	 63.239360	 2.599030	 1.285871	 6.739402	-34.235020	-5.111279	 18.667300	-0.936841	 25.294230	-62.332180	 5.070519	-0.690904	-9.399550	-2.350882	 35.473990	 5.254307
 0.012352	 0.036917	 1.218907	 179.895100	 0.655036	 0.718143	 2.435067	-10.713650	 178.325600	-1.593756	-39.980790	-6.884044	-152.805100	 84.082050	 139.553800	-2.222528	 45.502320	-0.434384	-12.417260	-10.533530	-176.213000	 6.494642	-39.245880	 9.348014	 176.365200	 85.173580	-167.673700	 2.354719	 33.611110	 0.117495	-31.210590	 5.031347	 0.941188	-0.684921	 11.340630	-2.325813	 6.276095	-25.695850	 4.697988	-91.229180	 83.958340	 178.242500	 35.658070	 64.770410	-50.298490	-4.588649	 1.867294	-7.786857	 19.518860	-7.898983	-8.699924	-11.618070	 8.354861	-24.695490	-5.213937	-0.202400	 3.566957	-1.378229	 35.397820	-2.634230	-1.349506	 7.104809	 5.319966	-2.754793	-19.933130	-7.218597	 87.726940	 87.418890	-176.798900	-68.009190	 60.381970	 65.549000	 4.321744	 1.835131	 7.801040	-34.025840	-5.484118	 18.812930	-0.862878	 25.273770	-61.722300	 5.070519	-0.690904	-9.399550	-2.350882	 35.473990	 5.254307
 0.012149	 0.036369	 1.219258	 179.935200	 0.647297	 0.625512	 2.547924	-10.805380	 178.587800	-1.608727	-39.823420	-6.871469	-153.282300	 84.462220	 140.024600	-2.214509	 45.984410	-0.449533	-12.493300	-10.712020	-176.331300	 6.500473	-39.297450	 9.361963	 178.358200	 85.307560	-169.616200	 2.357136	 33.267230	 0.109448	-32.004810	 4.943501	 1.009896	-0.652765	 11.305400	-2.335775	 6.214276	-25.758580	 4.703218	-91.229100	 83.958240	 178.242400	 38.309860	 65.798190	-52.579070	-5.286969	 2.023873	-8.056199	 19.175000	-7.952857	-8.746345	-11.605220	 8.289584	-24.600910	-5.213937	-0.202400	 3.566957	-1.378229	 35.397820	-2.634230	-1.362636	 7.074559	 5.343289	-2.796685	-20.031040	-7.241269	 87.726940	 87.418890	-176.798900	-69.512520	 60.656780	 66.700490	 5.103705	 1.992639	 8.069403	-33.617530	-5.432695	 18.855990	-0.749256	 25.451670	-61.751160	 5.070519	-0.690904	-9.399550	-2.350882	 35.473990	 5.254307
 0.011989	 0.035896	 1.219557	 179.971100	 0.641110	 0.544797	 2.639994	-10.872490	 178.798500	-1.623061	-39.689000	-6.861640	-153.647600	 84.772320	 140.388300	-2.207135	 46.415090	-0.463259	-12.555290	-10.854100	-176.414800	 6.504941	-39.339750	 9.373198	 179.933700	 85.410330	-171.153100	 2.359245	 32.960070	 0.102294	-32.680840	 4.867659	 1.068510	-0.624828	 11.314380	-2.334800	 6.155951	-25.833550	 4.703609	-91.229300	 83.958340	 178.242600	 40.557360	 66.571330	-54.492580	-5.904972	 2.166934	-8.292834	 18.868890	-7.999290	-8.787798	-11.593660	 8.231249	-24.516440	-5.213937	-0.202400	 3.566957	-1.378229	 35.397820	-2.634230	-1.374349	 7.047517	 5.364106	-2.834825	-20.118280	-7.261875	 87.726890	 87.418960	-176.798900	-70.756710	 60.862510	 67.665820	 5.796079	 2.135999	 8.306996	-33.254120	-5.384902	 18.893360	-0.647514	 25.610580	-61.777300	 5.070519	-0.690904	-9.399550	-2.350882	 35.473990	 5.254307
 0.011860	 0.035476	 1.219830	-179.994400	 0.636108	 0.470203	 2.716469	-10.918080	 178.968000	-1.638982	-39.573130	-6.855414	-153.877700	 85.026850	 140.623000	-2.199844	 46.829480	-0.476641	-12.606080	-10.967290	-176.462400	 6.508812	-39.378660	 9.383389	-178.946500	 85.487080	-172.245900	 2.361212	 32.664500	 0.095458	-33.302390	 4.797877	 1.121031	-0.600691	 11.375060	-2.323886	 6.097818	-25.929890	 4.700402	-91.229200	 83.958270	 178.242500	 42.380830	 67.132870	-56.000930	-6.494160	 2.307487	-8.515169	 18.575290	-8.042469	-8.827679	-11.582460	 8.175138	-24.435170	-5.213937	-0.202400	 3.566957	-1.378229	 35.397820	-2.634230	-1.385613	 7.021497	 5.384109	-2.872228	-20.202000	-7.282015	 87.726900	 87.418890	-176.798800	-71.741550	 61.006440	 68.422230	 6.457097	 2.277204	 8.529396	-32.905810	-5.337292	 18.928340	-0.549429	 25.763420	-61.802780	 5.070519	-0.690904	-9.399550	-2.350882	 35.473990	 5.254307
 0.011758	 0.035106	 1.220088	-179.959200	 0.632197	 0.399047	 2.777725	-10.940090	 179.095100	-1.658455	-39.476710	-6.854228	-153.913300	 85.224470	 140.671900	-2.192209	 47.251140	-0.490460	-12.645540	-11.051230	-176.465700	 6.512826	-39.418430	 9.393822	-178.422000	 85.536960	-172.757200	 2.363174	 32.363730	 0.088531	-33.906900	 4.731181	 1.168851	-0.581086	 11.504050	-2.302183	 6.037345	-26.059000	 4.693877	-91.229200	 83.958240	 178.242500	 43.649200	 67.470920	-56.962690	-7.088177	 2.453265	-8.736141	 18.277490	-8.084747	-8.868156	-11.571000	 8.118012	-24.352510	-5.213937	-0.202400	 3.566957	-1.378229	 35.397820	-2.634230	-1.397064	 6.995001	 5.404474	-2.910884	-20.287020	-7.302790	 87.726730	 87.418890	-176.798700	-72.406740	 61.082470	 68.900440	 7.124344	 2.423698	 8.750176	-32.552570	-5.287233	 18.962790	-0.449399	 25.918920	-61.829050	 5.070519	-0.690904	-9.399550	-2.350882	 35.473990	 5.254307
